<svg xmlns="http://www.w3.org/2000/svg" version="1.1" xmlns:xlink="http://www.w3.org/1999/xlink" xmlns:svgjs="http://svgjs.dev/svgjs" width="132" height="132" viewBox="0 0 2000 873"><g transform="matrix(1,0,0,1,18.69625587832934,26.239988049913052)"><svg viewBox="0 0 396 173" data-background-color="#ffffff" preserveAspectRatio="xMidYMid meet" height="873" width="2000" xmlns="http://www.w3.org/2000/svg" xmlns:xlink="http://www.w3.org/1999/xlink"><g id="tight-bounds" transform="matrix(1,0,0,1,0.2654730260842939,0.6217384827616996)"><svg viewBox="0 0 395.52 172.12557785100992" height="172.12557785100992" width="395.52"><g><svg viewBox="0 0 691.1652586566416 300.7868616930046" height="172.12557785100992" width="395.52"><g transform="matrix(1,0,0,1,295.64525865664166,95.9819146212844)"><svg viewBox="0 0 395.52 108.8230324504358" height="108.8230324504358" width="395.52"><g id="textblocktransform"><svg viewBox="0 0 395.52 108.8230324504358" height="108.8230324504358" width="395.52" id="textblock"><g><svg viewBox="0 0 395.52 108.8230324504358" height="108.8230324504358" width="395.52"><g transform="matrix(1,0,0,1,0,0)"><svg width="395.52" viewBox="0.6100000000000001 -37.84 180.13 50.290000000000006" height="108.8230324504358" data-palette-color="#a8afc4"><g class="wordmark-text-0" data-fill-palette-color="primary" id="text-0"><path d="M28.3-9.91L28.3-9.91Q28.3-6.88 27.08-4.94 25.85-3 23.91-1.92 21.97-0.83 19.78-0.42 17.58 0 15.6 0L15.6 0 1.61 0 1.61-2.15 4.25-2.34Q4.79-2.39 5.04-2.73 5.3-3.08 5.3-3.44L5.3-3.44 5.3-30.1Q5.3-30.47 5.04-30.82 4.79-31.18 4.25-31.2L4.25-31.2 1.61-31.4 1.61-33.54 14.99-33.54Q20.97-33.54 23.61-31.4 26.25-29.25 26.25-25.49L26.25-25.49Q26.25-23 25.06-21.44 23.88-19.87 22.2-19.03 20.53-18.19 19.04-17.8L19.04-17.8Q21.29-17.8 23.41-17.05 25.54-16.31 26.92-14.59 28.3-12.87 28.3-9.91ZM20.85-25.15L20.85-25.15Q20.85-28.08 18.93-29.66 17.02-31.25 13.16-31.25L13.16-31.25Q12.38-31.25 11.47-31.18 10.57-31.1 10.3-31.1L10.3-31.1 10.3-18.46Q10.3-18.46 11-18.43 11.69-18.41 12.11-18.41L12.11-18.41Q16.99-18.41 18.92-20.17 20.85-21.92 20.85-25.15ZM22.85-9.5L22.85-9.5Q22.85-12.92 20.81-14.5 18.77-16.09 14.79-16.09L14.79-16.09Q13.99-16.09 12.99-16.02 11.99-15.94 11.22-15.87 10.45-15.8 10.3-15.8L10.3-15.8 10.3-2.59Q10.3-2.59 10.88-2.55 11.45-2.51 12.19-2.48 12.94-2.44 13.4-2.44L13.4-2.44Q18.65-2.44 20.75-4.2 22.85-5.96 22.85-9.5ZM43.75-1.95L43.75 0 31.59 0 31.59-1.95 34.25-2.1Q34.59-2.1 34.97-2.47 35.35-2.83 35.35-3.15L35.35-3.15 35.35-33.25 31.54-33.25 31.54-34.91 37.94-36.84 39.99-36.84 39.99-3.15Q39.99-2.83 40.35-2.47 40.72-2.1 41.04-2.1L41.04-2.1 43.75-1.95ZM70.58-12.01L70.58-12.01Q70.58-8.47 69.11-5.6 67.65-2.73 64.97-1.06 62.3 0.61 58.64 0.61L58.64 0.61Q55 0.61 52.34-1.05 49.68-2.71 48.24-5.57 46.8-8.42 46.8-12.01L46.8-12.01Q46.8-15.58 48.25-18.46 49.7-21.34 52.4-23.02 55.1-24.71 58.78-24.71L58.78-24.71Q62.52-24.71 65.16-23 67.79-21.29 69.18-18.41 70.58-15.53 70.58-12.01ZM65.38-12.06L65.38-12.06Q65.38-14.79 64.66-17.16 63.94-19.53 62.46-21 60.98-22.46 58.74-22.46L58.74-22.46Q56.42-22.46 54.94-21 53.46-19.53 52.75-17.16 52.05-14.79 52.05-12.06L52.05-12.06Q52.05-9.35 52.77-6.97 53.49-4.59 54.96-3.13 56.44-1.66 58.69-1.66L58.69-1.66Q60.98-1.66 62.46-3.13 63.94-4.59 64.66-6.96 65.38-9.33 65.38-12.06ZM93.89-4.71L93.89-4.71 93.89-1.86Q92.2-0.95 90.09-0.17 87.98 0.61 85.44 0.61L85.44 0.61Q81.95 0.61 79.37-1.03 76.8-2.66 75.4-5.48 73.99-8.3 73.99-11.89L73.99-11.89Q73.99-16.09 75.66-18.95 77.34-21.8 80.08-23.25 82.83-24.71 86.03-24.71L86.03-24.71Q89.32-24.71 91.56-23.43 93.79-22.14 93.79-19.7L93.79-19.7Q93.79-18.24 92.88-17.49 91.96-16.75 90.84-16.75L90.84-16.75Q90.01-16.75 89.4-17.03 88.79-17.31 88.32-17.6L88.32-17.6 88.32-21.95Q87.18-22.61 86.22-22.61L86.22-22.61Q84-22.61 82.4-21.3 80.8-20 79.95-17.72 79.09-15.45 79.09-12.55L79.09-12.55Q79.09-9.79 80.02-7.51 80.95-5.22 82.79-3.88 84.64-2.54 87.37-2.54L87.37-2.54Q89.1-2.54 90.69-3.1 92.28-3.66 93.89-4.71ZM121.77-1.95L121.77 0 113.76 0 113.76-1.95 107.51-11.35 104.73-11.35 104.73-3.2Q104.73-2.17 105.78-2.1L105.78-2.1 107.92-1.95 107.92 0 96.57 0 96.57-1.95 99.01-2.1Q100.06-2.17 100.06-3.2L100.06-3.2 100.06-33.25 96.28-33.25 96.28-34.91 102.68-36.84 104.73-36.84 104.73-12.79 105.73-12.79 113.08-21.09Q113.17-21.22 113.17-21.41L113.17-21.41Q113.17-21.9 112.66-21.95L112.66-21.95 110.61-22.14 110.61-24.1 120.33-24.1 120.33-22.14 117.13-21.8 110.51-14.75 119.13-2.25 121.77-1.95ZM133.17-32.35L133.17-32.35Q133.17-31.08 132.29-30.16 131.41-29.25 130.14-29.25L130.14-29.25Q128.87-29.25 127.95-30.16 127.04-31.08 127.04-32.35L127.04-32.35Q127.04-33.64 127.95-34.52 128.87-35.4 130.14-35.4L130.14-35.4Q131.41-35.4 132.29-34.52 133.17-33.64 133.17-32.35ZM135.73-1.95L135.73 0 123.99 0 123.99-1.95 126.43-2.1Q127.48-2.17 127.48-3.2L127.48-3.2 127.48-21.04 124.04-21.04 124.04-22.8 130.14-24.71 132.12-24.71 132.12-3.2Q132.12-2.73 132.42-2.44 132.73-2.15 133.17-2.1L133.17-2.1 135.73-1.95ZM156.89-33.84L156.89-33.84Q156.89-32.84 156.39-32.26 155.89-31.69 155.33-31.45 154.77-31.2 154.57-31.15L154.57-31.15Q154.5-31.23 153.81-31.71 153.11-32.2 152.24-32.81 151.38-33.42 150.71-33.9 150.03-34.38 149.99-34.4L149.99-34.4Q148.91-33.84 147.97-32.13 147.03-30.42 147.03-26.9L147.03-26.9 147.03-23.71 153.23-23.71 153.23-21.14 147.03-21.14 147.03-3.2Q147.03-2.73 147.34-2.43 147.64-2.12 148.08-2.1L148.08-2.1 151.03-1.95 151.03 0 138.88 0 138.88-1.95 141.34-2.1Q141.78-2.15 142.09-2.44 142.39-2.73 142.39-3.2L142.39-3.2 142.39-21.14 139.19-21.14 139.19-22.9 142.39-23.8Q142.39-26.27 142.77-27.89 143.15-29.52 144.08-31.3L144.08-31.3Q145.54-34.13 147.85-35.49 150.16-36.84 152.6-36.84L152.6-36.84Q154.72-36.84 155.81-35.95 156.89-35.06 156.89-33.84ZM179.74-24.1L179.74-22.14 177.13-21.85 167.54 1.54Q167.22 2.34 166.55 3.85 165.88 5.35 164.96 6.92 164.05 8.5 163 9.55L163 9.55Q162.09 10.45 161.01 10.95 159.92 11.45 158.65 11.45L158.65 11.45Q156.87 11.45 155.93 10.58 154.99 9.72 154.99 8.59L154.99 8.59Q154.99 6.93 156.6 5.59L156.6 5.59 161.29 7.74Q162.12 6.91 162.95 5.49 163.78 4.08 164.45 2.56 165.12 1.05 165.49-0.05L165.49-0.05 156.99-21.85 154.23-22.14 154.23-24.1 165.29-24.1 165.29-22.14 162.9-22Q162.09-21.92 162.09-21.19L162.09-21.19Q162.09-21 162.14-20.9L162.14-20.9 167.95-6.15 173.88-20.9Q173.96-21.04 173.96-21.22L173.96-21.22Q173.96-21.95 173.2-22L173.2-22 170.83-22.14 170.83-24.1 179.74-24.1Z" fill="#a8afc4" data-fill-palette-color="primary"></path></g></svg></g></svg></g></svg></g></svg></g><g><svg viewBox="0 0 270.4759530334766 300.7868616930046" height="300.7868616930046" width="270.4759530334766"><g><svg xmlns="http://www.w3.org/2000/svg" xmlns:xlink="http://www.w3.org/1999/xlink" version="1.1" x="0" y="0" viewBox="11.02899996014585 6.238203230275509 77.9420000797083 86.67657636518146" enable-background="new 0 0 100 100" xml:space="preserve" height="300.7868616930046" width="270.4759530334766" class="icon-icon-0" data-fill-palette-color="accent" id="icon-0"><g fill="#111111" data-fill-palette-color="accent"><path d="M88.971 32.119A1.668 1.668 0 0 0 86.471 30.676L54.269 49.268A5.54 5.54 0 0 0 51.5 54.063V91.248A1.666 1.666 0 0 0 54 92.691L84.971 74.81A8 8 0 0 0 88.971 67.881z" fill="#111111" data-fill-palette-color="accent"></path><path d="M13.529 30.675A1.666 1.666 0 0 0 11.029 32.117V67.881A8 8 0 0 0 15.029 74.81L46 92.69 46.002 92.691A1.666 1.666 0 0 0 48.5 91.247V54.062A5.53 5.53 0 0 0 45.731 49.267z" fill="#111111" data-fill-palette-color="accent"></path><path d="M84.971 28.078A1.666 1.666 0 0 0 84.973 25.193L84.971 25.192 54 7.31A8 8 0 0 0 46 7.31L15.029 25.19 15.027 25.191A1.668 1.668 0 0 0 15.029 28.077L47.231 46.67A5.54 5.54 0 0 0 52.768 46.67z" fill="#111111" data-fill-palette-color="accent"></path></g></svg></g></svg></g></svg></g><defs></defs></svg><rect width="395.52" height="172.12557785100992" fill="none" stroke="none" visibility="hidden"></rect></g></svg></g></svg>